<?xml version="1.0" standalone="no"?>
<!DOCTYPE svg PUBLIC "-//W3C//DTD SVG 20010904//EN"
 "http://www.w3.org/TR/2001/REC-SVG-20010904/DTD/svg10.dtd">
<svg version="1.0" xmlns="http://www.w3.org/2000/svg"
 width="128.000000pt" height="128.000000pt" viewBox="0 0 128.000000 128.000000"
 preserveAspectRatio="xMidYMid meet">

<g transform="translate(0.000000,128.000000) scale(0.100000,-0.100000)"
fill="#000000" stroke="none">
<path d="M150 1077 c0 -30 5 -40 25 -49 19 -9 22 -14 15 -29 -6 -10 -10 -43
-10 -74 0 -31 -5 -65 -10 -75 -6 -10 -37 -33 -70 -51 -54 -28 -60 -35 -60 -63
0 -17 4 -36 8 -42 12 -18 50 -34 65 -28 9 3 25 0 37 -6 17 -9 20 -17 14 -48
-4 -20 -11 -46 -17 -57 -6 -11 -14 -45 -18 -75 -6 -40 -15 -61 -32 -76 -14
-11 -32 -33 -42 -48 -17 -25 -17 -27 0 -46 14 -16 31 -20 76 -20 31 0 64 -3
73 -6 23 -9 21 -75 -4 -107 -11 -14 -20 -28 -20 -31 0 -3 200 -6 444 -6 l443
0 -10 38 c-8 29 -7 45 4 67 13 28 19 30 79 35 54 4 65 8 68 24 3 11 -4 25 -13
32 -18 14 -79 259 -73 297 2 17 11 22 36 23 35 2 68 25 77 55 9 29 -21 76 -57
88 -55 19 -78 49 -78 100 -1 25 -7 59 -14 76 -11 27 -10 32 11 48 28 22 30 48
5 70 -15 14 -72 16 -485 19 l-467 3 0 -38z m271 -97 c16 -9 19 -22 19 -96 0
-106 8 -124 58 -124 21 0 43 -5 50 -12 17 -17 15 -72 -5 -107 l-18 -31 34 -27
c43 -34 61 -78 61 -153 l0 -60 -246 0 c-229 0 -245 1 -241 18 3 9 13 54 23
100 13 55 23 81 31 78 21 -8 71 14 76 34 3 11 -2 25 -10 32 -12 10 -17 9 -24
-5 -16 -28 -46 -21 -46 9 0 31 -17 44 -59 44 -37 0 -57 20 -52 52 2 16 19 31
53 50 60 32 75 51 75 97 0 20 5 53 11 74 l10 37 90 0 c50 0 99 -5 110 -10z
m644 -42 c8 -28 15 -64 15 -79 0 -33 13 -47 74 -79 25 -14 49 -33 52 -43 8
-26 -24 -57 -59 -57 -19 0 -50 -15 -90 -46 -157 -118 -241 -120 -314 -10 -54
80 -41 136 31 136 53 0 56 5 56 113 0 111 6 117 126 117 l93 0 16 -52z"/>
<path d="M267 884 c-4 -4 -7 -20 -7 -36 0 -25 4 -29 23 -26 17 2 22 10 22 33
0 29 -22 45 -38 29z"/>
<path d="M974 876 c-9 -23 0 -51 17 -54 19 -4 32 23 24 49 -7 22 -33 25 -41 5z"/>
</g>
</svg>
